<svg width="212" height="45" viewBox="0 0 212 45" fill="none" xmlns="http://www.w3.org/2000/svg">
<rect width="45" height="45" rx="3.57143" fill="#3E78E6"/>
<rect width="45" height="45" rx="3.57143" fill="#3E78E6"/>
<path fill-rule="evenodd" clip-rule="evenodd" d="M12.7198 45H3.57143C1.59899 45 0 43.4011 0 41.4286V21.5582C1.40751 21.0607 2.92215 20.79 4.50002 20.79C11.9559 20.79 18 26.8342 18 34.29C18 38.6527 15.9306 42.5321 12.7198 45Z" fill="#23CDF8"/>
<circle cx="12.15" cy="10.35" r="10.35" fill="#A9C6FE"/>
<circle cx="35.37" cy="20.7" r="9" fill="#82A7EE"/>
<path fill-rule="evenodd" clip-rule="evenodd" d="M15.8145 5.87152C13.0688 3.12584 8.61717 3.12583 5.87148 5.87152C3.1258 8.6172 3.12581 13.0688 5.87149 15.8145L12.557 22.5L5.87146 29.1855C3.12578 31.9312 3.12577 36.3828 5.87146 39.1285C8.61714 41.8742 13.0688 41.8742 15.8144 39.1285L22.5 32.443L29.1855 39.1285C31.9312 41.8742 36.3828 41.8742 39.1285 39.1285C41.8742 36.3828 41.8742 31.9312 39.1285 29.1855L32.443 22.5L39.1284 15.8145C41.8741 13.0688 41.8741 8.61721 39.1284 5.87153C36.3828 3.12584 31.9311 3.12585 29.1854 5.87153L22.5 12.557L15.8145 5.87152Z" fill="url(#paint0_linear_70_275)"/>
<path d="M73.1767 29.7681C72.6046 30.0309 71.9783 30.1624 71.2979 30.1624C70.633 30.1624 70.1073 29.9923 69.7207 29.6521C69.3341 29.2964 69.1176 28.6779 69.0713 27.7965L68.4218 16.06L64.3627 28.933C64.1308 29.6443 63.636 30 62.8783 30C62.4453 29.9845 62.1438 29.8918 61.9737 29.7217C61.8036 29.5516 61.6644 29.281 61.5562 28.9099L57.358 16.0368L56.6853 27.7269C56.6235 28.5929 56.4456 29.2346 56.1518 29.6521C55.8735 30.0541 55.371 30.2551 54.6442 30.2551C53.9174 30.2551 53.268 29.9536 52.6958 29.3506C53.1443 28.933 53.3917 28.3145 53.4381 27.495L54.3659 15.6425C54.3659 15.5497 54.3659 15.4492 54.3659 15.341C54.3659 14.6142 54.2112 14.0344 53.902 13.6014C55.0153 12.9983 56.206 12.6968 57.4739 12.6968C58.7419 12.6968 59.631 12.9983 60.1413 13.6014C60.6671 14.2045 61.1232 15.225 61.5098 16.6631L63.3654 23.3199L65.1746 16.7791C65.623 15.1554 66.1874 14.073 66.8678 13.5318C67.5636 12.9751 68.4605 12.6968 69.5583 12.6968C70.6717 12.6968 71.6227 12.8669 72.4113 13.2071C72.1329 13.671 71.9938 14.2431 71.9938 14.9235C71.9938 15.0627 72.0015 15.2173 72.017 15.3874L72.7128 27.4022C72.7437 28.4846 72.8984 29.2732 73.1767 29.7681ZM87.5742 20.3742V27.611C87.5742 28.446 87.8216 28.9949 88.3165 29.2578C87.7598 29.9227 87.0562 30.2551 86.2057 30.2551C84.9532 30.2551 84.2187 29.6289 84.0023 28.3764C83.2136 29.6289 82.1158 30.2551 80.7086 30.2551C79.3169 30.2551 78.2345 29.8995 77.4614 29.1882C76.6882 28.4769 76.3016 27.4409 76.3016 26.0801V20.2351C76.3016 19.431 76.0388 18.8898 75.513 18.6114C76.1006 17.9465 76.7965 17.6141 77.6005 17.6141C78.4201 17.6141 79.0154 17.8383 79.3865 18.2867C79.7576 18.7351 79.9432 19.431 79.9432 20.3742V25.709C79.9432 26.8997 80.5462 27.495 81.7524 27.495C82.7884 27.495 83.5152 26.9074 83.9327 25.7322V20.2351C83.9327 19.431 83.6698 18.8898 83.144 18.6114C83.7316 17.9465 84.4275 17.6141 85.2316 17.6141C86.0511 17.6141 86.6464 17.8383 87.0176 18.2867C87.3887 18.7351 87.5742 19.431 87.5742 20.3742ZM94.689 14.5756V27.611C94.689 28.446 94.9441 28.9949 95.4544 29.2578C94.8668 29.9227 94.1555 30.2551 93.3205 30.2551C91.8051 30.2551 91.0474 29.3351 91.0474 27.495V14.4364C91.0474 13.6632 90.7846 13.1143 90.2588 12.7896C90.8464 12.1401 91.5577 11.8154 92.3927 11.8154C93.9236 11.8154 94.689 12.7355 94.689 14.5756ZM102.031 20.0959V26.3584C102.031 27.3326 102.409 27.8197 103.167 27.8197C104.002 27.8197 104.775 27.4409 105.487 26.6832C105.703 26.6832 105.881 26.7759 106.02 26.9615C106.175 27.1316 106.252 27.3635 106.252 27.6573C106.252 28.2913 105.865 28.8867 105.092 29.4433C104.319 29.9845 103.36 30.2551 102.216 30.2551C101.087 30.2551 100.167 29.9691 99.456 29.3969C98.7447 28.8248 98.3891 27.9511 98.3891 26.7759V20.0959C97.8324 20.0804 97.4149 19.949 97.1366 19.7016C96.8582 19.4387 96.7191 19.114 96.7191 18.7274C96.7191 18.3408 96.8814 18.0316 97.2062 17.7996C97.5773 17.846 97.9716 17.8692 98.3891 17.8692V17.1734C98.3891 16.3693 98.1262 15.8281 97.6005 15.5497C98.1881 14.8848 98.8839 14.5524 99.688 14.5524C100.508 14.5524 101.103 14.7766 101.474 15.225C101.845 15.6734 102.031 16.3693 102.031 17.3125V17.8692H105.533C105.641 17.9929 105.695 18.1475 105.695 18.3331C105.695 18.8125 105.433 19.23 104.907 19.5856C104.396 19.9258 103.5 20.0959 102.216 20.0959H102.031ZM110.302 11.8154C110.905 11.8154 111.4 12.001 111.786 12.3721C112.188 12.7277 112.389 13.2071 112.389 13.8101C112.389 14.3977 112.134 14.939 111.624 15.4338C111.129 15.9286 110.557 16.176 109.907 16.176C109.258 16.176 108.732 15.9904 108.33 15.6193C107.944 15.2328 107.75 14.7302 107.75 14.1117C107.75 13.4932 108.021 12.9597 108.562 12.5112C109.119 12.0474 109.699 11.8154 110.302 11.8154ZM111.972 20.3742V27.611C111.972 28.446 112.227 28.9949 112.737 29.2578C112.15 29.9227 111.438 30.2551 110.603 30.2551C109.088 30.2551 108.33 29.3351 108.33 27.495V20.2351C108.33 19.431 108.067 18.8898 107.542 18.6114C108.129 17.9465 108.825 17.6141 109.629 17.6141C110.449 17.6141 111.044 17.8383 111.415 18.2867C111.786 18.7351 111.972 19.431 111.972 20.3742ZM121.195 28.1444C121.813 28.1444 122.362 27.7501 122.842 26.9615C123.321 26.1729 123.561 25.1678 123.561 23.9462C123.561 22.7246 123.329 21.7814 122.865 21.1165C122.401 20.4361 121.844 20.0959 121.195 20.0959C120.777 20.0959 120.375 20.2351 119.989 20.5134C119.618 20.7763 119.316 21.1397 119.084 21.6035V27.0775C119.656 27.7888 120.36 28.1444 121.195 28.1444ZM115.443 33.456V20.2351C115.443 19.431 115.18 18.882 114.654 18.5882C115.242 17.9388 115.953 17.6141 116.788 17.6141C118.009 17.6141 118.736 18.1707 118.968 19.2841C119.803 18.1707 120.924 17.6141 122.331 17.6141C123.739 17.6141 124.906 18.1707 125.834 19.2841C126.762 20.382 127.225 21.9205 127.225 23.8998C127.225 25.8791 126.669 27.4331 125.555 28.5619C124.442 29.6907 123.159 30.2551 121.705 30.2551C120.746 30.2551 119.873 29.9845 119.084 29.4433V33.572C119.084 34.3915 119.339 34.9327 119.85 35.1956C119.277 35.876 118.566 36.2162 117.716 36.2162C116.2 36.2162 115.443 35.2961 115.443 33.456ZM133.309 14.5756V27.611C133.309 28.446 133.564 28.9949 134.074 29.2578C133.487 29.9227 132.775 30.2551 131.94 30.2551C130.425 30.2551 129.667 29.3351 129.667 27.495V14.4364C129.667 13.6632 129.405 13.1143 128.879 12.7896C129.466 12.1401 130.178 11.8154 131.013 11.8154C132.544 11.8154 133.309 12.7355 133.309 14.5756ZM138.865 11.8154C139.468 11.8154 139.962 12.001 140.349 12.3721C140.751 12.7277 140.952 13.2071 140.952 13.8101C140.952 14.3977 140.697 14.939 140.187 15.4338C139.692 15.9286 139.12 16.176 138.47 16.176C137.821 16.176 137.295 15.9904 136.893 15.6193C136.506 15.2328 136.313 14.7302 136.313 14.1117C136.313 13.4932 136.584 12.9597 137.125 12.5112C137.682 12.0474 138.262 11.8154 138.865 11.8154ZM140.535 20.3742V27.611C140.535 28.446 140.79 28.9949 141.3 29.2578C140.712 29.9227 140.001 30.2551 139.166 30.2551C137.651 30.2551 136.893 29.3351 136.893 27.495V20.2351C136.893 19.431 136.63 18.8898 136.104 18.6114C136.692 17.9465 137.388 17.6141 138.192 17.6141C139.012 17.6141 139.607 17.8383 139.978 18.2867C140.349 18.7351 140.535 19.431 140.535 20.3742ZM159.407 30.3943C159.824 30.8118 160.033 31.3453 160.033 31.9947C160.033 32.9998 159.554 33.773 158.595 34.3142C158.007 34.6544 157.265 34.8245 156.368 34.8245C155.487 34.8245 154.582 34.6467 153.654 34.291C152.742 33.9508 151.969 33.5256 151.335 33.0153C150.716 32.5205 150.214 31.9947 149.827 31.4381C149.441 30.8814 149.247 30.433 149.247 30.0928C149.247 29.7526 149.34 29.4974 149.526 29.3274C149.727 29.1418 150.129 28.9099 150.732 28.6315C154.211 27.0079 155.951 24.441 155.951 20.9309C155.951 19.3227 155.518 17.9465 154.652 16.8023C153.786 15.658 152.719 15.0859 151.451 15.0859C150.183 15.0859 149.201 15.5652 148.505 16.5239C147.809 17.4826 147.461 18.7506 147.461 20.3278C147.461 21.9051 147.809 23.088 148.505 23.8766C149.201 24.6652 150.121 25.1214 151.265 25.2451C151.08 25.8791 150.747 26.4203 150.268 26.8687C149.789 27.3172 149.224 27.5414 148.575 27.5414C147.369 27.5414 146.271 26.9692 145.281 25.825C144.307 24.6807 143.82 23.2272 143.82 21.4644C143.82 18.9748 144.601 16.895 146.163 15.225C147.724 13.5395 149.758 12.6968 152.263 12.6968C154.459 12.6968 156.252 13.3849 157.644 14.7611C159.036 16.1219 159.731 17.962 159.731 20.2814C159.731 22.5854 159.074 24.6188 157.76 26.3816C156.461 28.129 154.567 29.3506 152.077 30.0464C153.283 30.7886 154.853 31.1597 156.786 31.1597C157.806 31.1597 158.68 30.9046 159.407 30.3943ZM174.849 20.3742V27.611C174.849 28.446 175.096 28.9949 175.591 29.2578C175.034 29.9227 174.331 30.2551 173.48 30.2551C172.228 30.2551 171.493 29.6289 171.277 28.3764C170.488 29.6289 169.39 30.2551 167.983 30.2551C166.591 30.2551 165.509 29.8995 164.736 29.1882C163.963 28.4769 163.576 27.4409 163.576 26.0801V20.2351C163.576 19.431 163.313 18.8898 162.787 18.6114C163.375 17.9465 164.071 17.6141 164.875 17.6141C165.694 17.6141 166.29 17.8383 166.661 18.2867C167.032 18.7351 167.218 19.431 167.218 20.3742V25.709C167.218 26.8997 167.821 27.495 169.027 27.495C170.063 27.495 170.789 26.9074 171.207 25.7322V20.2351C171.207 19.431 170.944 18.8898 170.418 18.6114C171.006 17.9465 171.702 17.6141 172.506 17.6141C173.325 17.6141 173.921 17.8383 174.292 18.2867C174.663 18.7351 174.849 19.431 174.849 20.3742ZM183.749 22.3226C184.028 22.2917 184.236 22.2066 184.376 22.0674C184.515 21.9128 184.584 21.6267 184.584 21.2092C184.584 20.7917 184.461 20.4129 184.213 20.0727C183.981 19.717 183.657 19.5392 183.239 19.5392C182.822 19.5392 182.427 19.8021 182.056 20.3278C181.685 20.8536 181.438 21.619 181.314 22.6241L183.749 22.3226ZM184.144 27.7269C185.427 27.7269 186.502 27.2398 187.368 26.2657C187.723 26.4203 187.901 26.745 187.901 27.2398C187.901 27.9821 187.46 28.6702 186.579 29.3042C185.698 29.9381 184.662 30.2551 183.471 30.2551C181.631 30.2551 180.193 29.7526 179.157 28.7475C178.136 27.7424 177.626 26.3043 177.626 24.4333C177.626 22.5468 178.19 20.9386 179.319 19.6088C180.448 18.279 181.878 17.6141 183.61 17.6141C184.94 17.6141 186.038 18.047 186.904 18.913C187.77 19.7634 188.203 20.7376 188.203 21.8355C188.203 22.686 188.002 23.2968 187.6 23.6679C187.198 24.039 186.509 24.24 185.535 24.2709L181.244 24.3869C181.353 26.6136 182.319 27.7269 184.144 27.7269ZM199.874 20.2351C199.874 20.7453 199.727 21.1397 199.433 21.418C199.139 21.6963 198.722 21.8355 198.181 21.8355C197.639 21.8355 197.121 21.6499 196.627 21.2788C196.828 20.6448 196.735 20.1655 196.348 19.8408C196.101 19.6397 195.761 19.5392 195.328 19.5392C194.91 19.5392 194.57 19.632 194.307 19.8176C194.06 19.9877 193.936 20.2505 193.936 20.6062C193.936 20.9618 194.16 21.302 194.609 21.6267C195.057 21.936 195.598 22.2298 196.232 22.5081C196.866 22.771 197.5 23.0648 198.134 23.3895C198.768 23.6988 199.309 24.1086 199.758 24.6188C200.206 25.1291 200.43 25.709 200.43 26.3584C200.43 27.5027 199.897 28.4382 198.83 29.165C197.763 29.8918 196.48 30.2551 194.98 30.2551C193.495 30.2551 192.25 29.9845 191.245 29.4433C190.225 28.8712 189.715 28.1599 189.715 27.3094C189.715 26.7991 189.908 26.3816 190.294 26.0569C190.681 25.7167 191.145 25.5466 191.686 25.5466C192.537 25.5466 193.14 25.8095 193.495 26.3352C193.232 26.5517 193.101 26.8378 193.101 27.1934C193.101 27.5491 193.271 27.8274 193.611 28.0285C193.951 28.214 194.4 28.3068 194.956 28.3068C195.513 28.3068 195.954 28.1986 196.279 27.9821C196.619 27.7501 196.789 27.4563 196.789 27.1007C196.789 26.745 196.565 26.4126 196.116 26.1033C195.668 25.794 195.127 25.5002 194.493 25.2219C193.859 24.9436 193.225 24.642 192.591 24.3173C191.957 23.9926 191.415 23.5751 190.967 23.0648C190.519 22.5391 190.294 21.9592 190.294 21.3252C190.294 20.3201 190.781 19.4542 191.756 18.7274C192.73 17.9852 193.882 17.6141 195.212 17.6141C196.557 17.6141 197.67 17.8615 198.552 18.3563C199.433 18.8511 199.874 19.4774 199.874 20.2351ZM206.678 20.0959V26.3584C206.678 27.3326 207.057 27.8197 207.815 27.8197C208.65 27.8197 209.423 27.4409 210.134 26.6832C210.351 26.6832 210.529 26.7759 210.668 26.9615C210.822 27.1316 210.9 27.3635 210.9 27.6573C210.9 28.2913 210.513 28.8867 209.74 29.4433C208.967 29.9845 208.008 30.2551 206.864 30.2551C205.735 30.2551 204.815 29.9691 204.104 29.3969C203.392 28.8248 203.037 27.9511 203.037 26.7759V20.0959C202.48 20.0804 202.063 19.949 201.784 19.7016C201.506 19.4387 201.367 19.114 201.367 18.7274C201.367 18.3408 201.529 18.0316 201.854 17.7996C202.225 17.846 202.619 17.8692 203.037 17.8692V17.1734C203.037 16.3693 202.774 15.8281 202.248 15.5497C202.836 14.8848 203.532 14.5524 204.336 14.5524C205.155 14.5524 205.751 14.7766 206.122 15.225C206.493 15.6734 206.678 16.3693 206.678 17.3125V17.8692H210.181C210.289 17.9929 210.343 18.1475 210.343 18.3331C210.343 18.8125 210.08 19.23 209.554 19.5856C209.044 19.9258 208.147 20.0959 206.864 20.0959H206.678Z" fill="#3E78E6"/>
<defs>
<linearGradient id="paint0_linear_70_275" x1="22.5" y1="3.81226" x2="22.5" y2="41.1878" gradientUnits="userSpaceOnUse">
<stop offset="0.57" stop-color="#E296F5"/>
<stop offset="1" stop-color="#84588F"/>
</linearGradient>
</defs>
</svg>
